<svg xmlns="http://www.w3.org/2000/svg" version="1.1" xmlns:xlink="http://www.w3.org/1999/xlink" xmlns:svgjs="http://svgjs.dev/svgjs" width="1000" height="1000" viewBox="0 0 1000 1000"><rect width="1000" height="1000" fill="#ffffff"></rect><g transform="matrix(0.7,0,0,0.7,149.57576335413574,419.70179053339143)"><svg viewBox="0 0 396 91" data-background-color="#ffffff" preserveAspectRatio="xMidYMid meet" height="229" width="1000" xmlns="http://www.w3.org/2000/svg" xmlns:xlink="http://www.w3.org/1999/xlink"><g id="tight-bounds" transform="matrix(1,0,0,1,0.2399967310889224,0.08413637842411958)"><svg viewBox="0 0 395.52 90.83172724315175" height="90.83172724315175" width="395.52"><g><svg viewBox="0 0 526.2452746433901 120.8529714032309" height="90.83172724315175" width="395.52"><g transform="matrix(1,0,0,1,130.72527464339012,16.70254525182135)"><svg viewBox="0 0 395.52 87.4478808995882" height="87.4478808995882" width="395.52"><g><svg viewBox="0 0 395.52 87.4478808995882" height="87.4478808995882" width="395.52"><g><svg viewBox="0 0 395.52 87.4478808995882" height="87.4478808995882" width="395.52"><g transform="matrix(1,0,0,1,0,0)"><svg width="395.52" viewBox="4.300000190734863 -34.900001525878906 157.83999633789062 34.900001525878906" height="87.4478808995882" data-palette-color="#000000"><path d="M25.35 0L14.75-16.3 9.95-10.8 9.95 0 4.3 0 4.3-34.9 9.95-34.9 9.95-17.2 10.15-17.2 15.15-23.55 24.55-34.9 31.15-34.9 18.7-20.2 32.15 0 25.35 0ZM59.65 0L37.3 0 37.3-34.9 59.65-34.9 59.65-29.9 42.95-29.9 42.95-20.2 58.1-20.2 58.1-15.2 42.95-15.2 42.95-5 59.65-5 59.65 0ZM93.65 0L93.65-26.7 93.4-26.7 90.65-21.05 83-7.1 75.35-21.05 72.6-26.7 72.35-26.7 72.35 0 66.95 0 66.95-34.9 73.65-34.9 83-17.15 83.3-17.15 92.65-34.9 99.05-34.9 99.05 0 93.65 0ZM113.29 0L107.64 0 107.64-34.9 129.44-34.9 129.44-29.9 113.29-29.9 113.29-20.2 127.64-20.2 127.64-15.2 113.29-15.2 113.29 0ZM150.04 0L144.39 0 144.39-13.75 132.39-34.9 138.84-34.9 147.34-19.35 147.49-19.35 155.94-34.9 162.14-34.9 150.04-13.85 150.04 0Z" opacity="1" transform="matrix(1,0,0,1,0,0)" fill="#000000" class="undefined-text-0" data-fill-palette-color="primary" id="text-0"></path></svg></g></svg></g></svg></g></svg></g><g><svg viewBox="0 0 110.08092871213893 120.8529714032309" height="120.8529714032309" width="110.08092871213893"><g><svg xmlns="http://www.w3.org/2000/svg" xmlns:xlink="http://www.w3.org/1999/xlink" version="1.1" x="0" y="0" viewBox="9.016304016113281 5 81.97798919677734 90" enable-background="new 0 0 100 100" xml:space="preserve" height="120.8529714032309" width="110.08092871213893" class="icon-icon-0" data-fill-palette-color="accent" id="icon-0"><g fill="#000000" data-fill-palette-color="accent"><g fill="#000000" data-fill-palette-color="accent"><path d="M89.451 82.815l-23.936-42.54V11.667h1.667c1.841 0 3.333-1.492 3.333-3.333S69.023 5 67.183 5H32.817c-1.841 0-3.333 1.493-3.333 3.333s1.493 3.333 3.333 3.333h1.667v28.609L10.549 82.814C6.399 90.185 11.333 95 17.515 95h64.971C88.75 95 93.597 90.18 89.451 82.815zM40.723 42.784c0.281-0.5 0.428-1.062 0.428-1.635V11.667H58.85v29.482c0 0.573 0.147 1.135 0.428 1.635l11.756 20.894c-5.624 4.172-13.604 3.702-18.677-1.366-6.811-6.813-15.501-6.514-19.449-5.638L40.723 42.784zM82.485 88.333H17.515c-1.052 0-1.731-1.227-1.156-2.249 0 0 10.789-18.85 10.999-19.06 5.564-5.567 14.647-5.639 20.286 0 7.865 7.861 19.272 7.547 26.678 2.498l9.319 16.563C84.217 87.106 83.538 88.333 82.485 88.333z" fill="#000000" data-fill-palette-color="accent"></path></g></g></svg></g></svg></g></svg></g><defs></defs></svg><rect width="395.52" height="90.83172724315175" fill="none" stroke="none" visibility="hidden"></rect></g></svg></g></svg>